HIERARCHY
ROOT hip
{
  OFFSET 0.00112043 5.09927 -9.65472
  CHANNELS 6 Xposition Yposition Zposition Zrotation Xrotation Yrotation
  JOINT abdomen
  {
    OFFSET 0 -1.186 -1.5018
    CHANNELS 3 Zrotation Xrotation Yrotation
    JOINT abdomen2
    {
      OFFSET 0 9.964 0.2134
      CHANNELS 3 Zrotation Xrotation Yrotation
      JOINT chest
      {
        OFFSET 0 13.134 -3.2573
        CHANNELS 3 Zrotation Xrotation Yrotation
        JOINT neck
        {
          OFFSET 0 20.686 -1.6905
          CHANNELS 3 Zrotation Xrotation Yrotation
          JOINT head
          {
            OFFSET 0 7.238 -0.1237
            CHANNELS 3 Zrotation Xrotation Yrotation
            End Site
            {
              OFFSET 0 0 0
            }
          }
        }
        JOINT lCollar
        {
          OFFSET 1.7069 20.075 5.0056
          CHANNELS 3 Zrotation Xrotation Yrotation
          JOINT lShldr
          {
            OFFSET 13.6458 -0.047 -4.849
            CHANNELS 3 Zrotation Xrotation Yrotation
            JOINT lForeArm
            {
              OFFSET 28.3255 -0.9759 2.2888
              CHANNELS 3 Zrotation Xrotation Yrotation
              JOINT lHand
              {
                OFFSET 22.1583 -0.53 10.8316
                CHANNELS 3 Zrotation Xrotation Yrotation
                JOINT lThumb1
                {
                  OFFSET 0.786 0.112 2.5817
                  CHANNELS 3 Zrotation Xrotation Yrotation
                  JOINT lThumb2
                  {
                    OFFSET 0.3601 -0.878 4.2331
                    CHANNELS 3 Zrotation Xrotation Yrotation
                    JOINT lThumb2_End
                    {
                      OFFSET 1.8127 -1.216 2.2227
                      CHANNELS 3 Zrotation Xrotation Yrotation
                      End Site
                      {
                        OFFSET 0.0181 -0.0122 0.0222
                      }
                    }
                  }
                }
                JOINT lCarpal1
                {
                  OFFSET 0.9571 1.114 1.7695
                  CHANNELS 3 Zrotation Xrotation Yrotation
                  JOINT lIndex1
                  {
                    OFFSET 4.1246 0.487 4.1451
                    CHANNELS 3 Zrotation Xrotation Yrotation
                    JOINT lIndex2
                    {
                      OFFSET 3.4052 -1.454 2.7682
                      CHANNELS 3 Zrotation Xrotation Yrotation
                      JOINT lIndex2_End
                      {
                        OFFSET 1.4531 -1.795 1.2713
                        CHANNELS 3 Zrotation Xrotation Yrotation
                        End Site
                        {
                          OFFSET 0.0145 -0.0179 0.0127
                        }
                      }
                    }
                  }
                  JOINT lMid1
                  {
                    OFFSET 5.6954 0.21 2.1184
                    CHANNELS 3 Zrotation Xrotation Yrotation
                    JOINT lMid2
                    {
                      OFFSET 3.9766 -1.54 2.3863
                      CHANNELS 3 Zrotation Xrotation Yrotation
                      JOINT lMid2_End
                      {
                        OFFSET 1.4042 -1.926 1.125
                        CHANNELS 3 Zrotation Xrotation Yrotation
                        End Site
                        {
                          OFFSET 0.014 -0.0193 0.0113
                        }
                      }
                    }
                  }
                }
                JOINT lCarpal2
                {
                  OFFSET 2.0956 0.66 -0.3894
                  CHANNELS 3 Zrotation Xrotation Yrotation
                  JOINT lRing1
                  {
                    OFFSET 5.0395 -0.09 2.4971
                    CHANNELS 3 Zrotation Xrotation Yrotation
                    JOINT lRing2
                    {
                      OFFSET 3.7921 -1.552 1.4806
                      CHANNELS 3 Zrotation Xrotation Yrotation
                      JOINT lRing2_End
                      {
                        OFFSET 1.4655 -1.808 0.9609
                        CHANNELS 3 Zrotation Xrotation Yrotation
                        End Site
                        {
                          OFFSET 0.0147 -0.0181 0.0096
                        }
                      }
                    }
                  }
                  JOINT lPinky1
                  {
                    OFFSET 4.9141 -1.269 0.3591
                    CHANNELS 3 Zrotation Xrotation Yrotation
                    JOINT lPinky2
                    {
                      OFFSET 3.1477 -1.685 0.8462
                      CHANNELS 3 Zrotation Xrotation Yrotation
                      JOINT lPinky2_End
                      {
                        OFFSET 0.8055 -1.585 0.7955
                        CHANNELS 3 Zrotation Xrotation Yrotation
                        End Site
                        {
                          OFFSET 0.0081 -0.0158 0.008
                        }
                      }
                    }
                  }
                }
              }
            }
          }
        }
        JOINT rCollar
        {
          OFFSET -1.7069 20.075 5.0056
          CHANNELS 3 Zrotation Xrotation Yrotation
          JOINT rShldr
          {
            OFFSET -13.6458 -0.047 -4.849
            CHANNELS 3 Zrotation Xrotation Yrotation
            JOINT rForeArm
            {
              OFFSET -28.3255 -0.9759 2.2888
              CHANNELS 3 Zrotation Xrotation Yrotation
              JOINT rHand
              {
                OFFSET -22.1583 -0.53 10.8316
                CHANNELS 3 Zrotation Xrotation Yrotation
                JOINT rThumb1
                {
                  OFFSET -0.786 0.112 2.5817
                  CHANNELS 3 Zrotation Xrotation Yrotation
                  JOINT rThumb2
                  {
                    OFFSET -0.3601 -0.878 4.2331
                    CHANNELS 3 Zrotation Xrotation Yrotation
                    JOINT rThumb2_End
                    {
                      OFFSET -1.8127 -1.216 2.2227
                      CHANNELS 3 Zrotation Xrotation Yrotation
                      End Site
                      {
                        OFFSET -0.0181 -0.0122 0.0222
                      }
                    }
                  }
                }
                JOINT rCarpal1
                {
                  OFFSET -0.9571 1.114 1.7695
                  CHANNELS 3 Zrotation Xrotation Yrotation
                  JOINT rIndex1
                  {
                    OFFSET -4.1246 0.487 4.1451
                    CHANNELS 3 Zrotation Xrotation Yrotation
                    JOINT rIndex2
                    {
                      OFFSET -3.4052 -1.454 2.7682
                      CHANNELS 3 Zrotation Xrotation Yrotation
                      JOINT rIndex2_End
                      {
                        OFFSET -1.4531 -1.795 1.2713
                        CHANNELS 3 Zrotation Xrotation Yrotation
                        End Site
                        {
                          OFFSET -0.0145 -0.018 0.0127
                        }
                      }
                    }
                  }
                  JOINT rMid1
                  {
                    OFFSET -5.6954 0.21 2.1184
                    CHANNELS 3 Zrotation Xrotation Yrotation
                    JOINT rMid2
                    {
                      OFFSET -3.9766 -1.54 2.3863
                      CHANNELS 3 Zrotation Xrotation Yrotation
                      JOINT rMid2_End
                      {
                        OFFSET -1.4042 -1.926 1.125
                        CHANNELS 3 Zrotation Xrotation Yrotation
                        End Site
                        {
                          OFFSET -0.014 -0.0193 0.0113
                        }
                      }
                    }
                  }
                }
                JOINT rCarpal2
                {
                  OFFSET -2.0956 0.66 -0.3894
                  CHANNELS 3 Zrotation Xrotation Yrotation
                  JOINT rRing1
                  {
                    OFFSET -5.0395 -0.09 2.4971
                    CHANNELS 3 Zrotation Xrotation Yrotation
                    JOINT rRing2
                    {
                      OFFSET -3.7921 -1.552 1.4806
                      CHANNELS 3 Zrotation Xrotation Yrotation
                      JOINT rRing2_End
                      {
                        OFFSET -1.4655 -1.808 0.9609
                        CHANNELS 3 Zrotation Xrotation Yrotation
                        End Site
                        {
                          OFFSET -0.0147 -0.0181 0.0096
                        }
                      }
                    }
                  }
                  JOINT rPinky1
                  {
                    OFFSET -4.9141 -1.269 0.3592
                    CHANNELS 3 Zrotation Xrotation Yrotation
                    JOINT rPinky2
                    {
                      OFFSET -3.1477 -1.685 0.8462
                      CHANNELS 3 Zrotation Xrotation Yrotation
                      JOINT rPinky2_End
                      {
                        OFFSET -0.8055 -1.585 0.7955
                        CHANNELS 3 Zrotation Xrotation Yrotation
                        End Site
                        {
                          OFFSET -0.0081 -0.0158 0.008
                        }
                      }
                    }
                  }
                }
              }
            }
          }
        }
      }
    }
  }
  JOINT lThigh
  {
    OFFSET 8.367 -8.2066 0.5982
    CHANNELS 3 Zrotation Xrotation Yrotation
    JOINT lShin
    {
      OFFSET 2.1923 -43.463 -0.4932
      CHANNELS 3 Zrotation Xrotation Yrotation
      JOINT lFoot
      {
        OFFSET 0.7333 -45.8593 -2.6451
        CHANNELS 3 Zrotation Xrotation Yrotation
        End Site
        {
          OFFSET 2.6618 -4.2699 12.3931
        }
      }
    }
  }
  JOINT rThigh
  {
    OFFSET -8.367 -8.2066 0.5982
    CHANNELS 3 Zrotation Xrotation Yrotation
    JOINT rShin
    {
      OFFSET -2.1923 -43.463 -0.4931
      CHANNELS 3 Zrotation Xrotation Yrotation
      JOINT rFoot
      {
        OFFSET -0.7333 -45.8593 -2.6451
        CHANNELS 3 Zrotation Xrotation Yrotation
        End Site
        {
          OFFSET -2.6618 -4.2699 12.3931
        }
      }
    }
  }
}
MOTION
Frames:	4
Frame Time:	0.0333333
25.3052 5.8189 -75.7577 89.9956 11.0232 -179.98 0.899662 0.551875 -0.31299 1.80244 1.09874 -0.63465 1.80247 1.09874 -0.634654 -0.0119404 51.4087 0.000384234 -0.0436814 -0.3959 11.8979 -25.9139 14.412 -53.0851 -28.5179 -21.2523 -4.89161 8.59047 -15.7437 -4.26778 8.92949 -22.2922 -25.1863 -2.84687e-007 3.04655e-007 -8.94025e-008 2.84687e-007 -3.04655e-007 8.94025e-008 -2.84687e-007 3.04655e-007 -8.94025e-008 3.18055e-015 1.19271e-015 -0 -2.84687e-007 3.04655e-007 -8.94025e-008 2.84687e-007 -3.04655e-007 8.94025e-008 -2.84687e-007 3.04655e-007 -8.94025e-008 -2.84687e-007 3.04655e-007 -8.94025e-008 2.84687e-007 -3.04655e-007 8.94025e-008 -2.84687e-007 3.04655e-007 -8.94025e-008 3.18055e-015 1.19271e-015 -0 -2.84687e-007 3.04655e-007 -8.94025e-008 2.84687e-007 -3.04655e-007 8.94025e-008 -2.84687e-007 3.04655e-007 -8.94025e-008 -2.84687e-007 3.04655e-007 -8.94025e-008 2.84687e-007 -3.04655e-007 8.94025e-008 -2.84687e-007 3.04655e-007 -8.94025e-008 0.809821 18.5791 18.4114 39.2539 28.44 19.1802 48.0521 -22.5959 91.312 42.7956 4.14984 -0.697929 9.54166e-015 -3.18055e-015 -0 6.36111e-015 -1.59028e-015 -7.95139e-016 6.36111e-015 -3.18055e-015 -7.95139e-016 -0 -3.18055e-015 -0 9.54166e-015 -4.77083e-015 1.11319e-014 1.27222e-014 1.59028e-015 -0 1.27222e-014 0 -7.95139e-016 9.54166e-015 -4.77083e-015 1.11319e-014 1.27222e-014 1.59028e-015 -0 1.27222e-014 0 -7.95139e-016 -0 -3.18055e-015 -0 9.54166e-015 -4.77083e-015 1.11319e-014 1.27222e-014 1.59028e-015 -0 1.27222e-014 0 -7.95139e-016 9.54166e-015 -4.77083e-015 1.11319e-014 1.27222e-014 1.59028e-015 -0 1.27222e-014 0 -7.95139e-016 3.20268 21.8297 0.115928 -5.66188 60.6438 6.96164 5.81402 15.9457 -0.4023 -0.692382 -24.4131 4.68306 51.886 43.9821 -45.6788 -5.57821 30.7623 -12.8687 
25.3052 5.8189 -75.7577 89.9956 11.0232 -179.98 0.900378 0.637654 -0.319346 1.80447 1.27019 -0.64874 1.80447 1.27019 -0.648741 -0.0115012 51.0424 4.12286e-005 -0.0462795 -0.229229 11.8314 -25.6981 13.8793 -53.0115 -28.9006 -21.1779 -5.10699 8.54738 -15.7299 -4.4151 8.92949 -22.2922 -25.1864 -3.18055e-015 0 -7.95139e-016 2.84708e-007 -3.04731e-007 8.91038e-008 8.31972e-007 -1.42991e-006 -9.52014e-006 -0 -3.97569e-016 -0 -6.36111e-015 -1.19271e-014 7.15625e-015 2.84708e-007 -3.04731e-007 8.91038e-008 8.31972e-007 -1.42991e-006 -9.52014e-006 -6.36111e-015 -1.19271e-014 7.15625e-015 2.84708e-007 -3.04731e-007 8.91038e-008 8.31972e-007 -1.42991e-006 -9.52014e-006 -0 -3.97569e-016 -0 -6.36111e-015 -1.19271e-014 7.15625e-015 2.84708e-007 -3.04731e-007 8.91038e-008 8.31972e-007 -1.42991e-006 -9.52014e-006 -6.36111e-015 -1.19271e-014 7.15625e-015 2.84708e-007 -3.04731e-007 8.91038e-008 8.31972e-007 -1.42991e-006 -9.52014e-006 0.728312 18.2476 18.4815 39.2539 28.44 19.1802 48.0522 -22.5959 91.312 42.7956 4.14984 -0.697945 -2.20695e-032 -1.59028e-015 -7.95139e-016 -3.18055e-015 -1.59028e-015 -7.95139e-016 -3.18055e-015 0 -7.95139e-016 -2.20695e-032 -1.59028e-015 -7.95139e-016 9.93129e-031 -4.77083e-015 1.19271e-014 -3.18055e-015 0 -0 -3.18055e-015 0 -0 9.93129e-031 -4.77083e-015 1.19271e-014 -3.18055e-015 0 -0 -3.18055e-015 0 -0 -2.20695e-032 -1.59028e-015 -7.95139e-016 9.93129e-031 -4.77083e-015 1.19271e-014 -3.18055e-015 0 -0 -3.18055e-015 0 -0 9.93129e-031 -4.77083e-015 1.19271e-014 -3.18055e-015 0 -0 -3.18055e-015 0 -0 3.20268 21.8297 0.115928 -5.66188 60.6438 6.96164 5.81402 15.9457 -0.4023 -0.692382 -24.4131 4.68306 51.886 43.9821 -45.6788 -5.57821 30.7623 -12.8687 
25.3052 5.8189 -75.7577 89.9956 11.0232 -179.98 0.901234 0.723545 -0.325709 1.80678 1.44183 -0.662852 1.80677 1.44183 -0.662851 -0.0114372 50.6761 2.33601e-005 -0.0486971 -0.0625672 11.7649 -25.482 13.3466 -52.936 -29.2829 -21.1022 -5.32176 8.50453 -15.7157 -4.56232 8.92951 -22.2922 -25.1863 2.23788e-007 2.80045e-007 3.09097e-007 -2.8473e-007 3.04806e-007 -8.88093e-008 -6.36111e-015 6.36111e-015 -0 3.18055e-015 3.97569e-016 7.95139e-016 2.23788e-007 2.80045e-007 3.09097e-007 -2.8473e-007 3.04806e-007 -8.88093e-008 3.18055e-015 1.19271e-015 -1.59028e-015 2.23788e-007 2.80045e-007 3.09097e-007 -2.8473e-007 3.04806e-007 -8.88093e-008 3.18055e-015 1.19271e-015 -1.59028e-015 3.18055e-015 3.97569e-016 7.95139e-016 2.23788e-007 2.80045e-007 3.09097e-007 -2.8473e-007 3.04806e-007 -8.88093e-008 3.18055e-015 1.19271e-015 -1.59028e-015 2.23788e-007 2.80045e-007 3.09097e-007 -2.8473e-007 3.04806e-007 -8.88093e-008 3.18055e-015 1.19271e-015 -1.59028e-015 0.647297 17.916 18.5511 39.2539 28.44 19.1802 48.0522 -22.5959 91.312 42.7956 4.14984 -0.697931 3.18055e-015 0 -0 3.18055e-015 0 -0 3.18055e-015 3.18055e-015 7.95139e-016 3.18055e-015 1.59028e-015 -0 6.36111e-015 0 7.95139e-016 6.36111e-015 1.59028e-015 1.59028e-015 0 1.59028e-015 -0 6.36111e-015 0 7.95139e-016 6.36111e-015 1.59028e-015 1.59028e-015 0 1.59028e-015 -0 3.18055e-015 1.59028e-015 -0 6.36111e-015 0 7.95139e-016 6.36111e-015 1.59028e-015 1.59028e-015 0 1.59028e-015 -0 6.36111e-015 0 7.95139e-016 6.36111e-015 1.59028e-015 1.59028e-015 0 1.59028e-015 -0 3.20268 21.8297 0.115928 -5.66188 60.6438 6.96164 5.81402 15.9457 -0.4023 -0.692382 -24.4131 4.68306 51.886 43.9821 -45.6788 -5.57821 30.7623 -12.8687 
25.3052 5.8189 -75.7577 89.9956 11.0232 -179.98 0.902019 0.809505 -0.332067 1.80895 1.61364 -0.676946 1.80894 1.61364 -0.676949 -0.0132268 50.3104 0.00138108 -0.0509333 0.104127 11.6983 -25.2656 12.8137 -52.8585 -29.6648 -21.0251 -5.53593 8.46235 -15.7001 -4.70939 8.92951 -22.2922 -25.1864 -1.8573e-006 5.33174e-008 1.20147e-007 -2.84753e-007 3.04878e-007 -8.85178e-008 5.42326e-007 -1.11098e-006 -9.61113e-006 3.18055e-015 -3.97569e-016 1.59028e-015 -1.8573e-006 5.33175e-008 1.20147e-007 -2.84753e-007 3.04878e-007 -8.85178e-008 5.42326e-007 -1.11098e-006 -9.61113e-006 -1.8573e-006 5.33175e-008 1.20147e-007 -2.84753e-007 3.04878e-007 -8.85178e-008 5.42326e-007 -1.11098e-006 -9.61113e-006 3.18055e-015 -3.97569e-016 1.59028e-015 -1.8573e-006 5.33175e-008 1.20147e-007 -2.84753e-007 3.04878e-007 -8.85178e-008 5.42326e-007 -1.11098e-006 -9.61113e-006 -1.8573e-006 5.33175e-008 1.20147e-007 -2.84753e-007 3.04878e-007 -8.85178e-008 5.42326e-007 -1.11098e-006 -9.61113e-006 0.566757 17.5841 18.6201 39.2539 28.44 19.1802 48.0521 -22.5959 91.3119 42.7956 4.14984 -0.697924 -6.36111e-015 3.18055e-015 1.59028e-015 -2.12546e-006 -1.69536e-006 -2.07689e-007 6.36111e-015 3.18055e-015 -7.95139e-016 -6.36111e-015 0 1.59028e-015 3.75182e-031 -1.59028e-015 1.35174e-014 -2.12546e-006 -1.69536e-006 -2.07689e-007 3.18055e-015 4.77083e-015 7.95139e-016 3.75182e-031 -1.59028e-015 1.35174e-014 -2.12546e-006 -1.69536e-006 -2.07689e-007 3.18055e-015 4.77083e-015 7.95139e-016 -6.36111e-015 0 1.59028e-015 3.75182e-031 -1.59028e-015 1.35174e-014 -2.12546e-006 -1.69536e-006 -2.07689e-007 3.18055e-015 4.77083e-015 7.95139e-016 3.75182e-031 -1.59028e-015 1.35174e-014 -2.12546e-006 -1.69536e-006 -2.07689e-007 3.18055e-015 4.77083e-015 7.95139e-016 3.20268 21.8297 0.115928 -5.66188 60.6438 6.96164 5.81402 15.9457 -0.4023 -0.692382 -24.4131 4.68306 51.886 43.9821 -45.6788 -5.57821 30.7623 -12.8687 
